<svg width="68" height="49" viewBox="0 0 68 49" fill="none" xmlns="http://www.w3.org/2000/svg">
<path d="M66.8241 2.75694C65.4984 0.963791 63.3833 -0.0648383 61.1611 0.00317346H24.419C22.0668 0.105784 19.7936 0.888067 17.8732 2.25653C15.9522 3.62496 14.4657 5.52123 13.5915 7.71777L10.6011 16.0927H19.9796C20.7886 16.0927 21.5364 16.5265 21.9409 17.2306C22.3459 17.9346 22.3459 18.8023 21.9409 19.5063C21.5364 20.2104 20.7885 20.6442 19.9796 20.6442H9.06089L7.29427 25.537H23.9897H23.9892C24.7987 25.537 25.5465 25.9708 25.951 26.6749C26.3555 27.3789 26.3555 28.2465 25.951 28.9506C25.5465 29.6546 24.7986 30.0884 23.9892 30.0884H5.55018V30.248V30.2474C4.66886 32.4003 4.89741 34.8512 6.162 36.8018C7.49681 38.5934 9.62159 39.6134 11.8473 39.5327H48.5674C50.9206 39.4194 53.1909 38.627 55.1072 37.2508C57.0235 35.8742 58.5045 33.9724 59.3727 31.7723L67.5047 9.266C68.3542 7.11576 68.1003 4.68359 66.8251 2.75729L66.8241 2.75694ZM56.9704 12.4746L39.6873 24.4902C38.3327 25.47 36.7122 26.0101 35.0436 26.0374C33.3401 26.0963 31.7155 25.3145 30.6941 23.944L22.0407 11.9964C21.6741 11.4889 21.532 10.8524 21.6478 10.2368C21.7636 9.62063 22.1271 9.08015 22.6525 8.74184C23.1369 8.39185 23.7396 8.24809 24.3291 8.34156C24.9187 8.43554 25.4481 8.75911 25.801 9.24271L34.4317 21.2132C34.6354 21.4636 35.8364 21.6226 37.2176 20.6671L54.3661 8.71953C54.8616 8.37817 55.4719 8.24914 56.0624 8.35989C56.653 8.47113 57.1753 8.813 57.5146 9.31082C57.8584 9.80356 57.9945 10.4126 57.8928 11.0054C57.7907 11.5982 57.4595 12.126 56.9711 12.4745L56.9704 12.4746ZM7.13531 25.5372L5.50409 30.0887H3.89616C3.08665 30.0887 2.33885 29.6549 1.93434 28.9508C1.52984 28.2468 1.52984 27.3792 1.93434 26.6751C2.33885 25.9711 3.08667 25.5372 3.89616 25.5372H7.13531ZM10.5559 16.093L8.90258 20.6444H2.2652C1.45568 20.6444 0.707884 20.2106 0.303379 19.5066C-0.101126 18.8025 -0.101126 17.9349 0.303379 17.2308C0.707884 16.5268 1.45571 16.093 2.2652 16.093H10.5559ZM26.9562 46.7243C26.9562 47.3278 26.7175 47.9063 26.2928 48.333C25.8681 48.7602 25.2917 49 24.691 49H6.97688C6.16787 49 5.42008 48.5662 5.01558 47.8621C4.61057 47.1576 4.61057 46.2905 5.01558 45.5864C5.42008 44.8818 6.16791 44.4485 6.97688 44.4485H24.691C25.2917 44.4485 25.8681 44.6883 26.2928 45.115C26.7175 45.5417 26.9562 46.1203 26.9562 46.7243Z" fill="#2B8A3E"/>
</svg>
