<svg width="20" height="20" viewBox="-1 -1 22 22" fill="none" xmlns="http://www.w3.org/2000/svg">
<mask id="path-1-inside-1_3722_3917" fill="white">
<path d="M20 9.99963C20 15.5225 15.5228 19.9996 10 19.9996C4.47715 19.9996 0 15.5225 0 9.99963C0 4.47679 4.47715 -0.000366211 10 -0.000366211C15.5228 -0.000366211 20 4.47679 20 9.99963Z"/>
</mask>
<path d="M19 9.99963C19 14.9702 14.9706 18.9996 10 18.9996V20.9996C16.0751 20.9996 21 16.0748 21 9.99963H19ZM10 18.9996C5.02944 18.9996 1 14.9702 1 9.99963H-1C-1 16.0748 3.92487 20.9996 10 20.9996V18.9996ZM1 9.99963C1 5.02907 5.02944 0.999634 10 0.999634V-1.00037C3.92487 -1.00037 -1 3.9245 -1 9.99963H1ZM10 0.999634C14.9706 0.999634 19 5.02907 19 9.99963H21C21 3.9245 16.0751 -1.00037 10 -1.00037V0.999634Z" fill="#868E96" mask="url(#path-1-inside-1_3722_3917)"/>
</svg>
