<svg width="63" height="24" viewBox="0 0 63 24" fill="none" xmlns="http://www.w3.org/2000/svg">
<g clip-path="url(#clip0_875_2142)">
<path d="M7.32698 12.4127C7.14282 12.2935 6.9271 12.232 6.70763 12.2363H3.00175V2.01646C3.01051 1.55862 2.83761 1.11587 2.5207 0.784656L2.50026 0.764856C2.37508 0.616337 2.21641 0.499543 2.03725 0.424056C1.84472 0.339685 1.63659 0.296556 1.42631 0.297456C1.23837 0.295086 1.05266 0.33823 0.88509 0.423189C0.717523 0.508148 0.573105 0.632387 0.464215 0.785256C0.315726 0.94611 0.2003 1.13447 0.124474 1.33966C0.0419452 1.54911 -0.000282331 1.7722 2.95136e-06 1.99726V13.3313C-0.023512 13.8311 0.147563 14.3206 0.477444 14.6975C0.625755 14.8649 0.809077 14.9978 1.01448 15.0869C1.21988 15.1759 1.44237 15.2189 1.66624 15.2129H6.70823C6.87128 15.2153 7.03286 15.1818 7.18141 15.1147C7.32995 15.0476 7.4618 14.9485 7.56751 14.8247C7.81282 14.5629 7.94558 14.2157 7.93731 13.8575C7.93851 13.5374 7.88062 13.2199 7.76654 12.9209C7.66801 12.7153 7.51547 12.5403 7.32518 12.4145" fill="#010202"/>
<path d="M13.8302 6.97079C13.8348 6.68989 13.7506 6.41469 13.5897 6.18419C13.422 5.94102 13.1942 5.74528 12.9282 5.61599C12.6487 5.47447 12.3397 5.40048 12.0263 5.39999C11.7135 5.3971 11.4045 5.46781 11.1243 5.60639C10.8585 5.73231 10.6305 5.92553 10.4629 6.16679C10.3036 6.39789 10.2197 6.67235 10.2223 6.95279V13.4448C10.2197 13.6567 10.2657 13.8664 10.3567 14.0579C10.4478 14.2494 10.5816 14.4175 10.7479 14.5494C11.0989 14.8524 11.5509 15.0132 12.0148 15C12.4845 15.0132 12.9423 14.8518 13.2992 14.547C13.4673 14.4129 13.6024 14.2424 13.6944 14.0484C13.7864 13.8544 13.8329 13.642 13.8302 13.4274V6.97079Z" fill="#010202"/>
<path d="M24.6537 13.4999C24.6756 13.0988 24.547 12.7039 24.2929 12.3923C24.1649 12.2611 24.0101 12.159 23.839 12.0929C23.6679 12.0269 23.4845 11.9984 23.3014 12.0095C23.1034 12.0178 22.9066 12.0437 22.7133 12.0869L21.9917 12.2669H21.9159C21.707 12.3034 21.4955 12.3234 21.2834 12.3269C20.8937 12.3291 20.5108 12.2254 20.1757 12.0269L20.1601 12.0173C19.8705 11.84 19.6271 11.5968 19.45 11.3075C19.2765 11.0013 19.1787 10.6582 19.1649 10.3067V10.2659C19.1505 9.97729 19.1968 9.68887 19.3008 9.41921C19.4049 9.14956 19.5645 8.90466 19.7692 8.7003C19.974 8.49595 20.2194 8.33667 20.4896 8.23274C20.7598 8.12881 21.0488 8.08253 21.3381 8.09689C21.547 8.09138 21.7559 8.10889 21.961 8.14909L22.5954 8.29309L23.1546 8.42269C23.2214 8.43872 23.2898 8.44737 23.3585 8.44849C23.6727 8.46311 23.981 8.36019 24.2232 8.15989C24.4361 7.97646 24.5761 7.72292 24.6176 7.44529C24.6056 6.68689 24.3007 5.67769 22.0392 5.43469C21.7669 5.40694 21.4933 5.39532 21.2196 5.39989C20.6264 5.39231 20.0357 5.47796 19.4692 5.65369C18.9587 5.82171 18.4818 6.07802 18.0603 6.41089C17.8036 6.62324 17.567 6.85884 17.3538 7.11469C17.0062 7.54955 16.7315 8.03766 16.5402 8.56009C16.3485 9.05887 16.2453 9.58717 16.2354 10.1213C16.2389 11.1527 16.5647 12.1573 17.1674 12.9953C17.5971 13.6226 18.1832 14.1274 18.8679 14.4599C19.6317 14.8158 20.4644 15.0002 21.3074 14.9999C21.967 15.0144 22.6253 14.9358 23.2629 14.7665C23.653 14.6717 24.012 14.4783 24.3056 14.2049C24.4924 14.0118 24.6141 13.7654 24.6537 13.4999Z" fill="#010202"/>
<path d="M30.0656 6.97084C30.0695 6.69005 29.9854 6.41505 29.8251 6.18424C29.6579 5.94218 29.4317 5.74663 29.1678 5.61604C28.8868 5.47433 28.5765 5.40035 28.2616 5.40004C27.9475 5.39629 27.6369 5.46703 27.3555 5.60644C27.0889 5.73203 26.8607 5.92606 26.694 6.16864C26.5365 6.39965 26.454 6.67344 26.4577 6.95284V13.4448C26.4549 13.6567 26.5007 13.8665 26.5917 14.0579C26.6827 14.2494 26.8164 14.4175 26.9826 14.5494C27.3338 14.8526 27.7861 15.0134 28.2502 15C28.7202 15.0133 29.1784 14.8519 29.5358 14.547C29.7036 14.4129 29.8385 14.2423 29.9303 14.0483C30.0221 13.8543 30.0683 13.642 30.0656 13.4274V6.97084Z" fill="#010202"/>
<path d="M36.9807 14.9998C36.0744 15.0099 35.1805 14.7898 34.383 14.3602C33.6293 13.9541 32.9963 13.3568 32.5478 12.6286C32.105 11.9122 31.8702 11.0871 31.8695 10.2454C31.8668 9.39479 32.0975 8.55964 32.5364 7.83042C32.9794 7.08613 33.6139 6.47357 34.374 6.05622C35.1708 5.61478 36.0693 5.38853 36.9807 5.39982C37.6252 5.39342 38.2658 5.50151 38.8724 5.71902C39.4435 5.92754 39.9729 6.23574 40.4358 6.62922C40.7078 6.85903 40.9534 7.11821 41.1682 7.40202C41.3724 7.67508 41.5464 7.96939 41.6871 8.27982C41.8226 8.57944 41.9251 8.89289 41.9926 9.21462C42.0583 9.53569 42.0915 9.86252 42.0918 10.1902C42.0909 10.7372 41.9955 11.28 41.8098 11.7946C41.6195 12.3202 41.3342 12.8064 40.968 13.2292C40.5846 13.6739 40.1261 14.0482 39.6132 14.335C38.8081 14.7802 37.9011 15.0092 36.9807 14.9998ZM36.9807 8.05782C36.6255 8.05485 36.2757 8.14425 35.9657 8.31721C35.6557 8.49018 35.3962 8.74074 35.2128 9.04422C34.9824 9.39618 34.8626 9.80884 34.8689 10.2292C34.8504 10.8131 35.0605 11.3812 35.4545 11.8132C35.647 12.026 35.8826 12.1954 36.1457 12.3103C36.4089 12.4253 36.6935 12.483 36.9807 12.4798C37.1193 12.4746 37.257 12.456 37.392 12.424C37.8244 12.3588 38.2225 12.1511 38.523 11.8341C38.8235 11.517 39.0092 11.1088 39.0504 10.6744C39.0739 10.5216 39.0879 10.3675 39.0925 10.213C39.1026 9.79505 38.9813 9.38442 38.7455 9.03882C38.5631 8.73547 38.3042 8.48521 37.9944 8.31306C37.6847 8.14091 37.3352 8.05289 36.9807 8.05782Z" fill="#010202"/>
<path d="M52.1337 5.60125C51.9034 5.46435 51.6392 5.39471 51.3712 5.40025C51.0922 5.39599 50.8173 5.46799 50.5763 5.60845C50.3332 5.74886 50.1307 5.94954 49.9882 6.19105C49.8442 6.43047 49.7695 6.70503 49.7723 6.98425V10.4642C49.7868 10.6829 49.758 10.9023 49.6876 11.1098C49.6171 11.3174 49.5063 11.509 49.3616 11.6738C49.1709 11.864 48.9411 12.0107 48.6882 12.104C48.4352 12.1972 48.1651 12.2347 47.8962 12.2138H47.8265L47.7615 12.1994C47.3646 12.1221 47.0093 11.9036 46.7617 11.5846C46.5141 11.2655 46.391 10.8677 46.4152 10.4648V6.98425C46.4209 6.77394 46.3826 6.56476 46.3027 6.37004C46.2229 6.17532 46.1033 5.99932 45.9516 5.85325C45.8082 5.70592 45.6358 5.58965 45.4454 5.51172C45.2549 5.43378 45.0504 5.39583 44.8446 5.40025C44.5791 5.39633 44.3179 5.4668 44.0905 5.60365C43.85 5.73636 43.6487 5.92982 43.5067 6.16465C43.3622 6.39929 43.2885 6.67051 43.2944 6.94585V10.6802C43.2185 11.7642 43.553 12.8372 44.2318 13.6868C45.0194 14.4496 46.0612 14.8959 47.1578 14.9402C47.4762 14.9778 47.7964 14.9979 48.1169 15.0002C48.4287 14.9971 48.74 14.9771 49.0496 14.9402C49.8318 14.8771 50.5915 14.6482 51.278 14.2688C51.8147 13.9613 52.2417 13.4941 52.4993 12.9326C52.7987 12.2204 52.9406 11.4522 52.9154 10.6802V6.94585C52.9212 6.6698 52.8486 6.39774 52.7061 6.16105C52.5669 5.92827 52.3697 5.73542 52.1337 5.60125Z" fill="#010202"/>
<path d="M63 11.8061C62.998 11.4198 62.906 11.0391 62.7312 10.6943C62.5493 10.3344 62.2807 10.0252 61.9495 9.79434C61.6205 9.56063 61.2597 9.37515 60.878 9.24354L60.4967 9.10194C60.0235 8.92854 59.5346 8.81334 59.0632 8.62194C58.9346 8.58346 58.8199 8.50874 58.7329 8.40677C58.6458 8.30481 58.5902 8.17992 58.5725 8.04714C58.5725 7.69194 58.9429 7.54134 59.2244 7.52994C59.6033 7.53556 59.9791 7.60034 60.338 7.72194L60.8545 7.84914C61.113 7.92357 61.3795 7.96668 61.6482 7.97754C61.7657 7.97841 61.8827 7.96409 61.9964 7.93494C62.2197 7.88406 62.4171 7.75427 62.552 7.56954C62.6856 7.39143 62.7572 7.17461 62.7559 6.95214C62.7637 6.7468 62.706 6.54428 62.5911 6.37374C62.1877 5.94332 61.6588 5.65031 61.0794 5.53614C60.5284 5.39335 59.9607 5.32474 59.3915 5.33214C58.6656 5.31724 57.9449 5.45609 57.2767 5.73954C56.7362 5.96734 56.2671 6.33627 55.9189 6.80754C55.6199 7.21153 55.4581 7.70031 55.4571 8.20254C55.459 8.5069 55.5177 8.80825 55.6303 9.09114C55.7339 9.34412 55.8799 9.57765 56.0621 9.78174C56.2684 9.99658 56.5131 10.1712 56.7836 10.2965C57.3016 10.5362 57.842 10.7243 58.397 10.8581C58.807 10.9189 59.2005 11.0618 59.5539 11.2781C59.6302 11.3504 59.6909 11.4374 59.7322 11.5338C59.7736 11.6303 59.7947 11.7342 59.7944 11.8391V11.9051L59.7661 11.9651C59.6795 12.0937 59.5546 12.1919 59.409 12.2457C59.2635 12.2995 59.1046 12.3063 58.955 12.2651C58.3605 12.1515 57.7771 11.9867 57.2112 11.7725C56.9652 11.6818 56.7065 11.63 56.4445 11.6189C56.1585 11.6089 55.8763 11.687 55.6363 11.8427C55.4281 11.9838 55.2755 12.1927 55.2046 12.4337L55.1968 12.4565C55.1592 12.563 55.1417 12.6755 55.1451 12.7883C55.1451 13.2317 55.4764 13.6673 56.1282 14.0813C56.8487 14.4634 57.647 14.6764 58.4625 14.7041C58.7992 14.7263 59.0512 14.7389 59.1997 14.7389C60.1813 14.7892 61.149 14.4917 61.9321 13.8989C62.2615 13.6569 62.5296 13.3415 62.7152 12.9777C62.9007 12.6139 62.9984 12.2119 63.0006 11.8037" fill="#010202"/>
<path d="M19.4006 24.0002C17.4989 24.0095 15.6363 23.4613 14.0441 22.4236C12.4518 21.386 11.2 19.9047 10.4441 18.1635C10.3662 17.98 10.3255 17.783 10.3245 17.5838C10.3236 17.3846 10.3622 17.1871 10.4383 17.0029C10.5144 16.8187 10.6263 16.6515 10.7677 16.5108C10.9091 16.3701 11.077 16.2589 11.2618 16.1835C11.6364 16.0257 12.058 16.0216 12.4356 16.1718C12.8132 16.3221 13.1163 16.6147 13.2792 16.9863C13.7961 18.1761 14.6517 19.1883 15.7399 19.8973C16.8281 20.6063 18.101 20.9808 19.4006 20.9744C20.7053 20.9813 21.983 20.6041 23.074 19.89C24.1649 19.1759 25.0206 18.1567 25.534 16.9599C25.6952 16.5879 25.9965 16.2941 26.3729 16.1418C26.7494 15.9896 27.1707 15.9912 27.546 16.1463C27.7313 16.221 27.9 16.3318 28.0421 16.4722C28.1842 16.6126 28.2969 16.7797 28.3738 16.964C28.4506 17.1482 28.4899 17.3458 28.4896 17.5453C28.4892 17.7449 28.4491 17.9423 28.3716 18.1263C27.6215 19.8776 26.3702 21.3692 24.7744 22.4142C23.1786 23.4591 21.3093 24.0111 19.4006 24.0008" fill="#E21E36"/>
<path d="M30.0656 1.8C30.0656 2.15601 29.9598 2.50402 29.7616 2.80003C29.5633 3.09603 29.2816 3.32674 28.952 3.46298C28.6223 3.59922 28.2596 3.63487 27.9097 3.56541C27.5598 3.49596 27.2383 3.32453 26.9861 3.07279C26.7338 2.82106 26.562 2.50033 26.4924 2.15116C26.4228 1.802 26.4585 1.44008 26.595 1.11117C26.7316 0.782263 26.9628 0.501141 27.2594 0.303355C27.5561 0.105568 27.9049 0 28.2616 0C28.7401 0 29.1989 0.189642 29.5372 0.527208C29.8755 0.864773 30.0656 1.32261 30.0656 1.8Z" fill="#E21E36"/>
<path d="M13.8302 1.8C13.8302 2.15601 13.7244 2.50402 13.5261 2.80003C13.3279 3.09603 13.0462 3.32674 12.7166 3.46298C12.3869 3.59922 12.0242 3.63487 11.6743 3.56541C11.3244 3.49596 11.0029 3.32453 10.7507 3.07279C10.4984 2.82106 10.3266 2.50033 10.257 2.15116C10.1873 1.802 10.2231 1.44008 10.3596 1.11117C10.4961 0.782263 10.7274 0.501141 11.024 0.303355C11.3207 0.105568 11.6694 0 12.0262 0C12.5047 0 12.9635 0.189642 13.3018 0.527208C13.6401 0.864773 13.8302 1.32261 13.8302 1.8Z" fill="#E21E36"/>
</g>
<defs>
<clipPath id="clip0_875_2142">
<rect width="63" height="24" fill="white"/>
</clipPath>
</defs>
</svg>
