<?xml version="1.0" encoding="utf-8"?><svg xmlns="http://www.w3.org/2000/svg" xmlns:xlink="http://www.w3.org/1999/xlink"><symbol fill="none" viewBox="0 0 68 49" id="src--assets--icons--EmailSentIcon" xmlns="http://www.w3.org/2000/svg"><path d="M66.824 2.757A6.786 6.786 0 0061.161.003H24.42a12.195 12.195 0 00-6.546 2.254 12.277 12.277 0 00-4.282 5.46l-2.99 8.376h9.379c.809 0 1.556.433 1.96 1.138a2.283 2.283 0 010 2.275 2.263 2.263 0 01-1.96 1.138H9.06l-1.766 4.893H23.99c.809 0 1.557.434 1.961 1.138a2.286 2.286 0 010 2.276 2.263 2.263 0 01-1.962 1.137H5.55v.16a7.106 7.106 0 00.612 6.554 6.784 6.784 0 005.685 2.73h36.72a12.218 12.218 0 006.54-2.281 12.306 12.306 0 004.266-5.479l8.132-22.506a7.082 7.082 0 00-.68-6.509zm-9.854 9.718L39.687 24.49a8.15 8.15 0 01-4.643 1.547 5.2 5.2 0 01-4.35-2.093l-8.653-11.948a2.284 2.284 0 01.611-3.254 2.259 2.259 0 013.149.5l8.63 11.971c.204.25 1.405.41 2.787-.546L54.366 8.72a2.256 2.256 0 013.149.59 2.286 2.286 0 01-.544 3.165zM7.135 25.537l-1.63 4.552H3.895c-.81 0-1.557-.434-1.962-1.138a2.286 2.286 0 010-2.276 2.263 2.263 0 011.962-1.138h3.24zm3.42-9.444l-1.652 4.551H2.265c-.81 0-1.557-.433-1.962-1.137a2.286 2.286 0 010-2.276 2.263 2.263 0 011.962-1.138h8.29zm16.401 30.631a2.28 2.28 0 01-.663 1.609A2.259 2.259 0 0124.69 49H6.977a2.263 2.263 0 01-1.961-1.138 2.283 2.283 0 010-2.276 2.262 2.262 0 011.96-1.137h17.715c.6 0 1.177.24 1.602.666a2.28 2.28 0 01.663 1.61z" fill="#2B8A3E"/></symbol><symbol fill="none" viewBox="0 0 48 48" id="src--assets--icons--EmptyCircle" xmlns="http://www.w3.org/2000/svg"><circle cx="24" cy="24" r="24" fill="#E9ECEF"/></symbol><symbol viewBox="-1 -1 22 22" fill="none" id="src--assets--icons--EmptyCircleIcon" xmlns="http://www.w3.org/2000/svg"><mask id="ca" fill="#fff"><path d="M20 10c0 5.523-4.477 10-10 10S0 15.523 0 10 4.477 0 10 0s10 4.477 10 10z"/></mask><path d="M19 10a9 9 0 01-9 9v2c6.075 0 11-4.925 11-11h-2zm-9 9a9 9 0 01-9-9h-2c0 6.075 4.925 11 11 11v-2zm-9-9a9 9 0 019-9v-2C3.925-1-1 3.925-1 10h2zm9-9a9 9 0 019 9h2c0-6.075-4.925-11-11-11v2z" fill="#868E96" mask="url(#ca)"/></symbol><symbol fill="none" viewBox="0 0 63 24" id="src--assets--icons--LiciousLogo" xmlns="http://www.w3.org/2000/svg"><g clip-path="url(#dclip0_875_2142)"><path d="M7.327 12.413a1.1 1.1 0 00-.62-.177H3.003V2.016c.009-.457-.164-.9-.481-1.231L2.5.765a1.23 1.23 0 00-.464-.34 1.506 1.506 0 00-.61-.128 1.164 1.164 0 00-.963.488c-.148.161-.264.35-.34.555-.082.21-.124.432-.124.657v11.334c-.024.5.148.99.477 1.367a1.532 1.532 0 001.19.515h5.041a1.11 1.11 0 00.86-.388c.245-.262.378-.61.37-.967a2.6 2.6 0 00-.171-.937 1.26 1.26 0 00-.442-.506M13.83 6.97c.005-.28-.08-.555-.24-.786a1.713 1.713 0 00-.662-.568 2.004 2.004 0 00-.902-.216 1.993 1.993 0 00-.902.206c-.266.126-.494.32-.661.56-.16.232-.243.506-.24.787v6.492a1.389 1.389 0 00.525 1.104c.35.303.803.464 1.267.451.47.013.927-.148 1.284-.453a1.411 1.411 0 00.531-1.12V6.971zM24.654 13.5a1.613 1.613 0 00-.361-1.108 1.277 1.277 0 00-.992-.383 3.337 3.337 0 00-.588.078l-.721.18h-.076c-.209.036-.42.056-.633.06a2.15 2.15 0 01-1.107-.3l-.016-.01a2.146 2.146 0 01-.71-.71 2.206 2.206 0 01-.285-1v-.041a2.067 2.067 0 012.173-2.17c.209-.005.418.013.623.053l.634.144.56.13a1.265 1.265 0 001.069-.263c.212-.184.352-.437.394-.715-.012-.758-.317-1.767-2.579-2.01a6.94 6.94 0 00-.82-.035 5.664 5.664 0 00-1.75.254c-.51.168-.987.424-1.409.757a5.4 5.4 0 00-.706.704 5.152 5.152 0 00-.814 1.445 4.589 4.589 0 00-.305 1.561 4.95 4.95 0 00.932 2.874 4.38 4.38 0 001.7 1.465c.765.356 1.597.54 2.44.54a7.019 7.019 0 001.956-.233c.39-.095.749-.289 1.043-.562.186-.193.308-.44.348-.705zM30.066 6.97c.004-.28-.08-.555-.24-.786a1.733 1.733 0 00-.658-.568 2.017 2.017 0 00-.906-.216 1.988 1.988 0 00-.907.206c-.266.126-.494.32-.661.563a1.36 1.36 0 00-.236.784v6.492a1.385 1.385 0 00.525 1.104c.35.304.803.464 1.267.451.47.013.928-.148 1.286-.453a1.41 1.41 0 00.53-1.12V6.971zM36.98 15c-.906.01-1.8-.21-2.597-.64a4.866 4.866 0 01-1.835-1.731 4.54 4.54 0 01-.679-2.384 4.654 4.654 0 01.667-2.415 4.86 4.86 0 011.838-1.774 5.245 5.245 0 012.607-.656 5.445 5.445 0 011.891.319c.572.209 1.1.517 1.564.91.272.23.517.49.732.773.204.273.378.567.52.878.135.3.237.613.305.935a4.75 4.75 0 01-.183 2.58 4.565 4.565 0 01-.842 1.434 5.03 5.03 0 01-1.355 1.106 5.328 5.328 0 01-2.632.665zm0-6.942a2.048 2.048 0 00-1.767.986c-.23.352-.35.765-.344 1.185a2.245 2.245 0 00.586 1.584 2.024 2.024 0 001.526.667c.138-.005.276-.024.411-.056a1.961 1.961 0 001.658-1.75c.024-.152.038-.306.043-.461a1.998 1.998 0 00-.348-1.174 2.023 2.023 0 00-1.764-.981zM52.134 5.601a1.434 1.434 0 00-.763-.2 1.532 1.532 0 00-.795.207c-.243.14-.445.342-.588.583a1.51 1.51 0 00-.216.793v3.48a1.666 1.666 0 01-.41 1.21 1.87 1.87 0 01-1.466.54h-.07l-.065-.015a1.67 1.67 0 01-1.346-1.734v-3.48a1.51 1.51 0 00-.463-1.132 1.499 1.499 0 00-1.107-.453 1.422 1.422 0 00-.755.204c-.24.132-.441.326-.583.56a1.431 1.431 0 00-.213.782v3.734a4.332 4.332 0 00.938 3.007 4.465 4.465 0 002.926 1.253c.318.038.638.058.959.06.312-.003.623-.023.933-.06a5.526 5.526 0 002.228-.671 2.965 2.965 0 001.221-1.336c.3-.713.442-1.48.416-2.253V6.946a1.462 1.462 0 00-.209-.785 1.572 1.572 0 00-.572-.56zM63 11.806a2.487 2.487 0 00-.269-1.112c-.182-.36-.45-.669-.782-.9a4.232 4.232 0 00-1.071-.55l-.381-.142c-.474-.173-.962-.289-1.434-.48a.697.697 0 01-.49-.575c0-.355.37-.506.651-.517.38.006.755.07 1.114.192l.517.127c.258.075.525.118.793.129.118 0 .235-.014.348-.043.224-.05.421-.18.556-.365.134-.179.205-.395.204-.618a.97.97 0 00-.165-.578 2.819 2.819 0 00-1.512-.838 6.397 6.397 0 00-1.688-.204 5.145 5.145 0 00-2.114.408c-.54.227-1.01.596-1.358 1.068a2.353 2.353 0 00.143 2.974c.206.215.451.39.722.514.518.24 1.058.428 1.613.562.41.06.803.204 1.157.42a.77.77 0 01.24.561v.066l-.028.06a.74.74 0 01-.811.3 10.485 10.485 0 01-1.744-.492 2.525 2.525 0 00-.767-.154 1.395 1.395 0 00-.808.224c-.208.14-.36.35-.431.59l-.008.024a.914.914 0 00-.052.331c0 .444.331.88.983 1.293.72.382 1.519.595 2.334.623.337.022.59.035.738.035.981.05 1.949-.247 2.732-.84a2.621 2.621 0 001.069-2.095" fill="#010202"/><path d="M19.4 24a9.724 9.724 0 01-5.356-1.576 9.692 9.692 0 01-3.6-4.26 1.503 1.503 0 01.818-1.98 1.549 1.549 0 012.017.802 6.626 6.626 0 002.46 2.911 6.646 6.646 0 003.662 1.077 6.644 6.644 0 003.673-1.084 6.623 6.623 0 002.46-2.93 1.546 1.546 0 012.012-.814 1.508 1.508 0 01.826 1.98 9.683 9.683 0 01-3.598 4.288 9.715 9.715 0 01-5.373 1.587M30.066 1.8a1.797 1.797 0 01-1.114 1.663 1.808 1.808 0 01-2.46-1.312A1.797 1.797 0 0127.26.303a1.807 1.807 0 012.278.224c.338.338.529.796.529 1.273zM13.83 1.8a1.797 1.797 0 01-1.113 1.663 1.808 1.808 0 01-2.46-1.312 1.796 1.796 0 01.767-1.848 1.807 1.807 0 012.278.224c.338.338.528.796.528 1.273z" fill="#E21E36"/></g><defs><clipPath id="dclip0_875_2142"><path fill="#fff" d="M0 0h63v24H0z"/></clipPath></defs></symbol></svg>